<svg xmlns="http://www.w3.org/2000/svg" version="1.1" xmlns:xlink="http://www.w3.org/1999/xlink" xmlns:svgjs="http://svgjs.dev/svgjs" width="128" height="128" viewBox="0 0 128 128"><g transform="matrix(0.8046875,0,0,0.8046875,12.479787282120377,12.760752631578946)"><svg viewBox="0 0 95 95" data-background-color="#ffffff" preserveAspectRatio="xMidYMid meet" height="128" width="128" xmlns="http://www.w3.org/2000/svg" xmlns:xlink="http://www.w3.org/1999/xlink"><g id="tight-bounds" transform="matrix(1,0,0,1,0.01864279804431135,-0.24049999999999727)"><svg viewBox="0 0 94.96271440391138 95.481" height="95.481" width="94.96271440391138"><g><svg viewBox="0 0 94.96271440391138 95.481" height="95.481" width="94.96271440391138"><g><svg viewBox="0 0 94.96271440391138 95.481" height="95.481" width="94.96271440391138"><g><svg viewBox="0 0 94.96271440391138 95.481" height="95.481" width="94.96271440391138"><g><svg viewBox="0 0 94.96271440391138 95.481" height="95.481" width="94.96271440391138"><g><svg viewBox="0 0 94.96271440391138 95.481" height="95.481" width="94.96271440391138"><g><svg xmlns="http://www.w3.org/2000/svg" xmlns:xlink="http://www.w3.org/1999/xlink" version="1.1" x="0" y="0" viewBox="10.40553162208914 10.881 80.41404187578118 80.85292401904232" enable-background="new 0 0 100 100" xml:space="preserve" height="95.481" width="94.96271440391138" class="icon-icon-0" data-fill-palette-color="accent" id="icon-0"><g fill="#398378" data-fill-palette-color="accent"><path d="M12.802 60.492l15.391-30.039c1.271-2.482 4.312-3.463 6.793-2.191s3.462 4.313 2.191 6.795l-4.352 8.492 1.091 0.559 4.351-8.494c1.272-2.48 4.312-3.461 6.793-2.189s3.462 4.313 2.191 6.795L42.9 48.711l1.091 0.559 11.131-21.727 1.53-2.984 2.829-5.523c1.272-2.482 4.312-3.463 6.793-2.191 1.26 0.645 2.129 1.75 2.516 3.004 0.295 0.955 0.298 1.998-0.016 2.994-0.084 0.27-0.178 0.537-0.311 0.795l-2.774 5.414-1.557 3.039-0.044 0.086-1.688 3.293-9.428 18.402 1.091 0.559 9.109-17.779 1.495-2.918 0.908-1.771 1.677-3.273c0.045-0.088 0.108-0.162 0.159-0.244 0.646-1.102 1.64-1.889 2.781-2.258 1.049-0.338 2.205-0.311 3.293 0.092 0.188 0.07 0.378 0.127 0.56 0.219 2.481 1.271 3.462 4.314 2.191 6.795l-2.34 4.564-1.585 3.096L56.802 71.225l16.549 2.412c0.604 0.076 1.169 0.254 1.684 0.518 1.833 0.939 2.979 2.953 2.698 5.115-0.513 3.947-4.145 4.596-5.629 4.383-24.662-3.527-20.064 15.945-42.688 4.354l-9.276-4.752C13.793 80.002 6.549 72.695 12.802 60.492z" fill="#398378" data-fill-palette-color="accent"></path><path d="M77.929 39.852l5.15 7.875c0.002 0.002 0.004 0.004 0.004 0.006 0.061 0.09 0.132 0.17 0.213 0.248 0.024 0.021 0.05 0.041 0.075 0.061 0.035 0.029 0.068 0.061 0.106 0.086 0.004 0.002 0.006 0.006 0.009 0.008 0.011 0.008 0.022 0.01 0.033 0.014 0.009 0.008 0.02 0.012 0.031 0.018 0.031 0.018 0.063 0.037 0.096 0.053 0.055 0.025 0.112 0.049 0.169 0.068 0.025 0.008 0.049 0.018 0.075 0.025 0.018 0.004 0.035 0.01 0.051 0.014 0.103 0.023 0.206 0.037 0.314 0.037 0.002 0 0.002 0 0.002 0h0.002c0.002 0 0.002 0 0.003 0 0.107 0 0.211-0.014 0.313-0.037 0.019-0.004 0.035-0.01 0.053-0.014 0.024-0.008 0.048-0.018 0.073-0.025 0.059-0.02 0.116-0.043 0.171-0.068 0.033-0.016 0.064-0.033 0.096-0.051 0.011-0.008 0.022-0.012 0.031-0.02 0.011-0.004 0.022-0.006 0.031-0.014 0.003-0.002 0.007-0.006 0.011-0.008 0.037-0.025 0.07-0.057 0.105-0.086 0.026-0.02 0.053-0.039 0.077-0.061 0.081-0.078 0.152-0.158 0.211-0.248 0.002-0.002 0.004-0.004 0.006-0.006l5.15-7.875c0.426-0.652 0.242-1.527-0.41-1.955-0.652-0.424-1.526-0.242-1.953 0.41l-2.559 3.912V12.291c0-0.779-0.632-1.41-1.411-1.41s-1.411 0.631-1.411 1.41v29.928l-2.559-3.912c-0.428-0.652-1.302-0.834-1.955-0.41C77.685 38.324 77.503 39.199 77.929 39.852z" fill="#398378" data-fill-palette-color="accent"></path></g></svg></g></svg></g></svg></g></svg></g></svg></g><g></g></svg></g><defs></defs></svg><rect width="94.96271440391138" height="95.481" fill="none" stroke="none" visibility="hidden"></rect></g></svg></g></svg>